# Blender 3.3.1
# www.blender.org
mtllib mine.mtl
o Bomb
v -0.006074 0.163207 0.000411
v 0.004020 0.161142 -0.003464
v -0.001936 0.169223 -0.015539
v 0.006067 0.229450 0.007381
v 0.013751 0.226041 -0.005554
v -0.000061 0.238630 -0.002333
v -0.001410 0.257425 -0.002339
v -0.007676 0.253008 0.011897
v -0.032148 0.261486 -0.001980
v -0.006890 0.121714 -0.001308
v -0.036523 0.256981 0.007922
v 0.003163 0.123016 -0.007524
v -0.035822 0.271810 0.006531
v 0.004573 0.256855 0.007494
v 0.004758 0.127501 0.004566
v -0.010553 0.162298 -0.007953
v 0.011467 -0.149885 0.019536
v 0.049159 -0.142891 -0.029603
v 0.099692 -0.118287 0.012291
v 0.000338 -0.133869 0.077837
v -0.049159 -0.142891 0.029603
v -0.099692 -0.118287 -0.012291
v -0.029603 -0.142891 -0.049159
v 0.109372 -0.110021 -0.025403
v 0.048264 -0.132991 0.063075
v 0.091189 -0.108744 0.062309
v -0.091189 -0.108744 -0.062310
v 0.000000 0.146310 -0.036086
v -0.036086 0.146310 0.000000
v -0.000000 0.146310 0.036086
v 0.036135 0.146284 0.000118
v 0.083393 0.128614 -0.013290
v 0.025588 0.146249 -0.025588
v 0.047852 0.132066 -0.065007
v -0.025588 0.146249 -0.025588
v -0.059169 0.134377 -0.051155
v -0.026153 0.126594 -0.085910
v -0.099966 0.094687 -0.073306
v -0.026772 0.149430 0.026772
v -0.024310 0.121350 0.095537
v -0.085910 0.126594 0.026153
v -0.090452 0.101820 0.074787
v 0.025469 0.146274 0.025634
v 0.059169 0.134377 0.051155
v 0.059811 0.114354 0.087898
v 0.149885 0.011467 0.019536
v 0.142891 -0.029601 -0.049161
v 0.142891 0.049160 -0.029602
v 0.118287 0.099692 0.012291
v 0.133869 0.000338 0.077837
v 0.139608 -0.059366 0.032768
v 0.132991 0.048264 0.063075
v 0.108744 0.091189 0.062310
v -0.035969 0.010639 0.148471
v 0.049161 -0.029601 0.142891
v 0.099693 0.012291 0.118286
v 0.029600 0.049162 0.142891
v -0.039459 0.082686 0.126509
v -0.029603 -0.049159 0.142891
v 0.091189 0.062309 0.108744
v -0.149885 0.011467 -0.019536
v -0.143928 -0.014469 0.048839
v -0.143928 0.048839 0.014469
v -0.121381 0.099146 0.009888
v -0.133869 0.000338 -0.077837
v -0.139608 -0.059367 -0.032765
v -0.132129 -0.076419 0.026849
v -0.132129 0.026849 0.076419
v -0.103762 0.050355 0.106017
v -0.132990 0.048263 -0.063076
v -0.011467 0.019537 -0.149885
v 0.049159 0.029603 -0.142891
v 0.111360 0.000001 -0.111361
v 0.032765 -0.059367 -0.139608
v -0.048839 -0.014469 -0.143928
v -0.099693 0.012291 -0.118286
v -0.033232 0.052851 -0.140972
v -0.026849 -0.076419 -0.132129
v -0.050355 -0.106017 -0.103762
v -0.037753 0.096810 -0.115198
v -0.091189 0.062310 -0.108744
v 0.108744 -0.091189 -0.062310
v 0.062309 -0.108744 -0.091189
v 0.012291 -0.118287 -0.099692
v 0.105925 -0.054602 -0.102112
v 0.102112 0.054602 -0.105926
v 0.062309 -0.091189 0.108744
v 0.012291 -0.099692 0.118287
v -0.054602 -0.102112 0.105926
v 0.102112 -0.054602 0.105925
v -0.103762 -0.106017 0.050355
v -0.106062 -0.051376 0.103224
v -0.099692 -0.012291 0.118287
v -0.102112 -0.054602 -0.105925
v 0.106294 0.103357 -0.050473
v 0.062309 0.091189 -0.108744
v 0.012291 0.099692 -0.118287
v 0.037754 0.096810 0.115198
v -0.000000 0.191452 -0.041447
v 0.029417 0.191469 -0.029417
v 0.041523 0.191423 0.000186
v -0.041447 0.191452 0.000000
v -0.029417 0.191469 -0.029417
v 0.000000 0.191452 0.041447
v -0.029417 0.191469 0.029417
v 0.029230 0.191484 0.029496
v 0.008633 0.191776 -0.019213
v 0.019213 0.191776 0.008633
v -0.019213 0.191776 -0.008633
v -0.008633 0.191776 0.019213
v 0.008105 0.130034 -0.013836
v -0.008118 0.130268 0.013859
vn -0.9721 -0.0231 -0.2332
vn -0.9731 -0.2184 -0.0730
vn -0.4246 0.0402 0.9045
vn 0.5875 0.0636 0.8067
vn 0.9603 -0.0562 0.2731
vn 0.0842 -0.0386 -0.9957
vn 0.3150 -0.1284 -0.9404
vn 0.8695 0.1232 -0.4784
vn 0.1118 -0.1088 0.9878
vn -0.7255 -0.2631 -0.6359
vn 0.7183 0.5773 0.3883
vn -0.1570 -0.1902 0.9691
vn 0.3650 0.5626 -0.7418
vn -0.5499 0.8166 0.1755
vn -0.4361 -0.1189 -0.8920
vn -0.7198 -0.5984 0.3519
vn 0.2843 -0.9415 -0.1809
vn 0.7098 -0.6844 -0.1663
vn 0.6150 -0.7805 0.1117
vn -0.1741 -0.9441 -0.2799
vn 0.0859 -0.7781 -0.6223
vn 0.3948 -0.7089 -0.5845
vn 0.6570 -0.3500 -0.6677
vn 0.7164 -0.5704 -0.4019
vn 0.3056 -0.8770 0.3707
vn 0.0731 -0.9932 0.0911
vn -0.0192 -0.8784 0.4775
vn 0.3812 -0.5836 0.7170
vn 0.0824 -0.6134 0.7855
vn 0.6082 -0.6877 0.3963
vn 0.6607 -0.3423 0.6681
vn -0.2993 -0.9383 0.1730
vn -0.6457 -0.6872 0.3329
vn -0.6223 -0.7781 -0.0859
vn -0.3477 -0.6533 0.6725
vn -0.3234 -0.6863 -0.6515
vn -0.5933 -0.7048 -0.3890
vn -0.6495 -0.3448 -0.6777
vn 0.0001 0.6116 -0.7911
vn 0.2869 0.8661 -0.4093
vn -0.1494 0.8357 -0.5284
vn 0.7872 0.6166 -0.0086
vn 0.5021 0.8624 -0.0646
vn 0.5620 0.6249 -0.5420
vn 0.3889 0.5867 -0.7103
vn 0.0973 0.6194 -0.7790
vn 0.6876 0.6457 -0.3320
vn 0.6683 0.3478 -0.6575
vn -0.7889 0.6133 -0.0390
vn -0.3889 0.8717 -0.2982
vn -0.5106 0.8454 0.1567
vn -0.5350 0.6423 -0.5488
vn -0.6434 0.6245 -0.4427
vn -0.7910 0.6097 0.0504
vn 0.0458 0.5974 0.8007
vn -0.5700 0.5836 0.5783
vn -0.1431 0.8033 0.5782
vn 0.3557 0.8856 0.2986
vn 0.5340 0.6409 0.5514
vn 0.7013 0.5948 0.3930
vn 0.7797 0.6204 0.0840
vn 0.3666 0.7435 0.5593
vn 0.2145 0.6056 0.7663
vn 0.9460 -0.1701 -0.2758
vn 0.7068 0.0005 -0.7074
vn 0.9130 -0.3622 0.1877
vn 0.9403 0.2828 -0.1892
vn 0.8770 0.3056 0.3707
vn 0.9937 0.0631 0.0925
vn 0.8796 -0.0170 0.4754
vn 0.5774 0.3892 0.7177
vn 0.6134 0.0824 0.7855
vn 0.2740 -0.1693 0.9467
vn -0.1740 -0.2922 0.9404
vn 0.1781 0.2714 0.9458
vn -0.2496 0.4898 0.8353
vn -0.2128 0.0702 0.9746
vn -0.6510 0.3317 0.6827
vn -0.6138 -0.0599 0.7872
vn -0.5952 0.6470 0.4765
vn -0.6838 -0.3300 0.6508
vn -0.9543 -0.1079 0.2786
vn -0.8735 0.1821 0.4514
vn -0.9128 -0.3554 -0.2015
vn -0.8827 -0.4395 0.1663
vn -0.9514 0.2921 0.0972
vn -0.8725 0.3169 -0.3720
vn -0.9944 0.0459 -0.0954
vn -0.8796 -0.0170 -0.4754
vn -0.5749 0.3883 -0.7202
vn -0.6178 0.0788 -0.7824
vn 0.2843 0.1618 -0.9450
vn -0.2006 0.3164 -0.9272
vn 0.2136 -0.3355 -0.9175
vn -0.2899 -0.1022 -0.9516
vn -0.1636 -0.4396 -0.8832
vn -0.2679 0.6101 -0.7456
vn -0.0299 0.0791 -0.9964
vn -0.5739 0.5850 0.5731
vn -0.8136 0.5814 0.0006
vn 0.8147 0.5798 0.0030
vn 0.5724 0.5813 0.5783
vn 0.5764 0.5801 -0.5755
vn -0.5756 0.5801 -0.5764
vn -0.0006 0.5814 -0.8136
vn 0.0004 0.5813 0.8137
vn 0.1559 0.9204 -0.3586
vn -0.3433 0.9255 -0.1599
vn -0.1560 0.9204 0.3585
vn 0.3437 0.9254 0.1595
vn -0.2897 0.8173 0.4981
vn 0.2922 0.8136 -0.5026
vt 0.143810 0.943971
vt 0.144815 0.912596
vt 0.165860 0.869330
vt 0.330647 0.930864
vt 0.315888 0.895726
vt 0.354703 0.959560
vt 0.354202 0.859847
vt 0.393198 0.886722
vt 0.402300 0.932795
vt 0.130892 0.735444
vt 0.404967 0.959222
vt 0.464091 0.869066
vt 0.034036 0.851159
vt 0.034316 0.965786
vt 0.101497 0.723387
vt 0.473431 0.950315
vt 0.037983 0.881892
vt 0.128074 0.706366
vt 0.481048 0.905230
vt 0.384597 0.908457
vt 0.042847 0.920126
vt 0.146153 0.969804
vt 0.145461 0.845617
vt 0.205346 0.079480
vt 0.740189 0.928207
vt 0.278297 0.119845
vt 0.243082 0.189132
vt 0.125728 0.120265
vt 0.652870 0.907392
vt 0.721703 0.863371
vt 0.756918 0.794124
vt 0.304515 0.056665
vt 0.821100 0.862242
vt 0.283196 0.196405
vt 0.171874 0.160779
vt 0.193009 0.205755
vt 0.806991 0.777445
vt 0.437562 0.541166
vt 0.780993 0.402787
vt 0.677650 0.446316
vt 0.219007 0.580510
vt 0.562438 0.442034
vt 0.322341 0.536835
vt 0.323837 0.448460
vt 0.382790 0.532771
vt 0.411184 0.452816
vt 0.734437 0.428653
vt 0.760189 0.500582
vt 0.486200 0.468914
vt 0.829945 0.480742
vt 0.782650 0.570055
vt 0.617005 0.452089
vt 0.136993 0.523522
vt 0.535961 0.550444
vt 0.663457 0.546760
vt 0.617611 0.592646
vt 0.265582 0.554590
vt 0.239811 0.482618
vt 0.189362 0.457644
vt 0.263233 0.313541
vt 0.311644 0.269554
vt 0.311268 0.336734
vt 0.283881 0.400012
vt 0.211849 0.313698
vt 0.238564 0.259764
vt 0.228290 0.357756
vt 0.228874 0.404089
vt 0.027000 0.338300
vt 0.521113 0.716055
vt 0.093834 0.293764
vt 0.160956 0.334056
vt 0.468781 0.667917
vt 0.086540 0.393892
vt 0.083500 0.469600
vt 0.526494 0.623147
vt 0.031809 0.263202
vt 0.543661 0.788816
vt 0.174827 0.387059
vt 0.736767 0.669659
vt 0.685562 0.701150
vt 0.701698 0.643108
vt 0.694670 0.588889
vt 0.788151 0.669502
vt 0.759234 0.723260
vt 0.712725 0.750216
vt 0.651277 0.671883
vt 0.607770 0.655799
vt 0.771711 0.625444
vt 0.528743 0.270504
vt 0.952743 0.619399
vt 0.465005 0.294772
vt 0.381608 0.278270
vt 0.444471 0.186047
vt 0.969231 0.714588
vt 0.907413 0.670981
vt 0.839044 0.649171
vt 0.530700 0.338200
vt 0.903358 0.580970
vt 0.446000 0.119900
vt 0.919878 0.755016
vt 0.867460 0.785637
vt 0.858974 0.532423
vt 0.825173 0.596162
vt 0.320025 0.204022
vt 0.353775 0.159584
vt 0.383338 0.099144
vt 0.910301 0.839478
vt 0.364900 0.228862
vt 0.391532 0.331167
vt 0.137776 0.220775
vt 0.572293 0.876674
vt 0.079474 0.187472
vt 0.626575 0.827567
vt 0.168535 0.268395
vt 0.695383 0.791087
vt 0.638823 0.755000
vt 0.608233 0.719518
vt 0.831465 0.714817
vt 0.351660 0.395046
vt 0.430632 0.376720
vt 0.901230 0.496588
vt 0.497503 0.399855
vt 0.141026 0.450777
vt 0.752276 0.329158
vt 0.429346 0.627912
vt 0.379209 0.615869
vt 0.335565 0.616611
vt 0.664427 0.366545
vt 0.706249 0.354714
vt 0.247724 0.654042
vt 0.570654 0.355288
vt 0.620791 0.367331
vt 0.293760 0.628507
vt 0.891900 0.201500
vt 0.635119 0.194461
vt 0.717081 0.302169
vt 0.386780 0.655282
vt 0.686235 0.201800
vt 0.321846 0.660538
vt 0.857035 0.204300
vt 0.678154 0.322707
vt 0.805919 0.196907
vt 0.721100 0.199100
vt 0.282919 0.681031
vt 0.613220 0.327972
vt 0.872521 0.120839
vt 0.664169 0.116575
vt 0.835004 0.119030
vt 0.701722 0.118339
s 1
usemtl Fuze
f 16/22/1 10/14/2 1/1/3
f 1/1/3 15/21/4 2/2/5
f 3/3/6 15/21/4 12/17/7
f 10/13/2 16/23/1 3/3/6
f 3/3/6 12/17/7 10/13/2
f 5/5/8 2/2/5 3/3/6
f 4/4/9 6/6/10 16/22/1
f 16/22/1 1/1/3 4/4/9
f 4/4/9 2/2/5 5/5/8
f 5/5/8 14/20/11 4/4/9
f 6/6/10 4/4/9 8/9/12
f 8/9/12 4/4/9 14/20/11
f 7/8/13 14/20/11 5/5/8
f 13/18/14 9/10/15 11/15/16
f 13/19/14 14/20/11 7/8/13
f 7/8/13 9/12/15 13/19/14
f 14/20/11 13/19/14 8/9/12
f 8/9/12 11/16/16 9/11/15
f 1/1/3 10/14/2 15/21/4
f 3/3/6 2/2/5 15/21/4
f 4/4/9 1/1/3 2/2/5
f 3/3/6 16/23/1 6/7/10
f 6/7/10 5/5/8 3/3/6
f 8/9/12 9/11/15 6/6/10
f 6/7/10 9/12/15 7/8/13
f 6/7/10 7/8/13 5/5/8
f 8/9/12 13/19/14 11/16/16
usemtl Metal
f 18/26/17 24/34/18 19/27/19
f 23/32/20 84/106/21 18/26/17
f 18/26/17 83/105/22 24/34/18
f 83/105/22 85/108/23 82/104/24
f 18/26/17 25/35/25 17/24/26
f 17/24/26 25/35/25 20/28/27
f 25/35/25 87/110/28 88/112/29
f 18/26/17 19/27/19 25/35/25
f 26/36/30 90/114/31 87/110/28
f 21/30/32 91/115/33 22/31/34
f 21/30/32 89/113/35 91/115/33
f 23/33/20 79/101/36 84/107/21
f 21/30/32 22/31/34 23/33/20
f 23/33/20 27/37/37 79/101/36
f 27/37/37 94/118/38 79/101/36
f 28/38/39 34/46/40 37/49/41
f 31/43/42 32/44/43 33/45/44
f 34/46/40 96/120/45 97/122/46
f 32/44/43 95/119/47 34/46/40
f 95/119/47 86/109/48 96/120/45
f 29/40/49 36/48/50 41/55/51
f 28/39/39 36/48/50 35/47/52
f 36/48/50 38/51/53 64/82/54
f 30/42/55 39/52/56 40/54/57
f 41/55/51 40/54/57 39/52/56
f 31/43/42 44/58/58 32/44/43
f 30/41/55 44/58/58 43/57/59
f 44/58/58 53/67/60 49/63/61
f 40/53/57 45/59/62 44/58/58
f 40/53/57 98/123/63 45/59/62
f 47/61/64 85/108/23 73/92/65
f 51/65/66 24/34/18 47/61/64
f 47/61/64 82/104/24 85/108/23
f 48/62/67 95/119/47 49/63/61
f 47/61/64 73/92/65 48/62/67
f 48/62/67 86/109/48 95/119/47
f 48/62/67 52/66/68 46/60/69
f 46/60/69 52/66/68 50/64/70
f 52/66/68 60/78/71 56/71/72
f 48/62/67 49/63/61 52/66/68
f 53/67/60 45/59/62 60/78/71
f 51/65/66 26/36/30 19/27/19
f 55/70/73 90/114/31 56/71/72
f 59/76/74 88/112/29 55/70/73
f 55/70/73 87/110/28 90/114/31
f 57/73/75 98/123/63 58/74/76
f 58/74/76 98/123/63 40/53/57
f 55/70/73 56/71/72 57/73/75
f 57/73/75 60/78/71 98/123/63
f 54/69/77 69/87/78 93/117/79
f 57/72/75 58/75/76 54/69/77
f 58/75/76 42/56/80 69/87/78
f 59/77/74 89/113/35 88/111/29
f 54/69/77 93/117/79 59/77/74
f 59/77/74 92/116/81 89/113/35
f 62/80/82 92/116/81 68/86/83
f 66/84/84 67/85/85 62/80/82
f 67/85/85 91/115/33 92/116/81
f 91/115/33 89/113/35 92/116/81
f 62/80/82 68/86/83 63/81/86
f 68/86/83 69/87/78 64/82/54
f 63/81/86 70/88/87 61/79/88
f 61/79/88 70/88/87 65/83/89
f 70/88/87 81/103/90 76/96/91
f 63/81/86 64/82/54 70/88/87
f 66/84/84 27/37/37 22/31/34
f 72/91/92 86/109/48 73/92/65
f 77/97/93 97/122/46 72/91/92
f 72/91/92 96/120/45 86/109/48
f 74/93/94 83/105/22 84/106/21
f 72/91/92 73/92/65 74/93/94
f 75/95/95 94/118/38 76/96/91
f 74/94/94 78/100/96 75/95/95
f 78/100/96 79/101/36 94/118/38
f 77/98/93 80/102/97 97/121/46
f 75/95/95 77/98/93 71/90/98
f 75/95/95 76/96/91 77/98/93
f 77/98/93 81/103/90 80/102/97
f 29/40/49 105/132/99 102/128/100
f 43/57/59 101/127/101 106/133/102
f 28/38/39 100/126/103 33/45/44
f 28/39/39 103/129/104 99/124/105
f 29/40/49 103/129/104 35/47/52
f 31/43/42 100/126/103 101/127/101
f 30/41/55 106/133/102 104/130/106
f 30/42/55 105/132/99 39/52/56
f 106/133/102 110/144/107 104/130/106
f 100/126/103 108/139/108 101/127/101
f 103/129/104 107/136/109 99/124/105
f 105/132/99 109/141/110 102/128/100
f 108/138/108 111/147/111 112/149/112
f 109/140/110 111/146/111 107/134/109
f 110/142/107 112/148/112 109/140/110
f 109/140/110 112/148/112 111/146/111
f 107/135/109 111/147/111 108/138/108
f 108/138/108 112/149/112 110/143/107
f 17/24/26 23/32/20 18/26/17
f 18/26/17 84/106/21 83/105/22
f 24/34/18 83/105/22 82/104/24
f 20/28/27 25/35/25 88/112/29
f 25/35/25 19/27/19 26/36/30
f 25/35/25 26/36/30 87/110/28
f 17/25/26 20/29/27 21/30/32
f 21/30/32 20/29/27 89/113/35
f 20/29/27 88/111/29 89/113/35
f 17/25/26 21/30/32 23/33/20
f 23/33/20 22/31/34 27/37/37
f 28/38/39 33/45/44 34/46/40
f 37/49/41 34/46/40 97/122/46
f 33/45/44 32/44/43 34/46/40
f 34/46/40 95/119/47 96/120/45
f 32/44/43 49/63/61 95/119/47
f 29/40/49 35/47/52 36/48/50
f 41/55/51 36/48/50 64/82/54
f 28/39/39 37/50/41 36/48/50
f 37/50/41 38/51/53 36/48/50
f 37/50/41 97/121/46 80/102/97
f 37/50/41 80/102/97 38/51/53
f 29/40/49 41/55/51 39/52/56
f 41/55/51 42/56/80 40/54/57
f 41/55/51 64/82/54 42/56/80
f 31/43/42 43/57/59 44/58/58
f 32/44/43 44/58/58 49/63/61
f 30/41/55 40/53/57 44/58/58
f 44/58/58 45/59/62 53/67/60
f 46/60/69 51/65/66 47/61/64
f 47/61/64 24/34/18 82/104/24
f 46/60/69 47/61/64 48/62/67
f 48/62/67 73/92/65 86/109/48
f 50/64/70 52/66/68 56/71/72
f 52/66/68 49/63/61 53/67/60
f 52/66/68 53/67/60 60/78/71
f 24/34/18 51/65/66 19/27/19
f 46/60/69 50/64/70 51/65/66
f 51/65/66 50/64/70 90/114/31
f 51/65/66 90/114/31 26/36/30
f 50/64/70 56/71/72 90/114/31
f 54/68/77 59/76/74 55/70/73
f 55/70/73 88/112/29 87/110/28
f 54/68/77 55/70/73 57/73/75
f 57/73/75 56/71/72 60/78/71
f 98/123/63 60/78/71 45/59/62
f 54/69/77 58/75/76 69/87/78
f 58/75/76 40/54/57 42/56/80
f 59/77/74 93/117/79 92/116/81
f 61/79/88 66/84/84 62/80/82
f 68/86/83 92/116/81 93/117/79
f 62/80/82 67/85/85 92/116/81
f 67/85/85 22/31/34 91/115/33
f 61/79/88 62/80/82 63/81/86
f 63/81/86 68/86/83 64/82/54
f 64/82/54 69/87/78 42/56/80
f 68/86/83 93/117/79 69/87/78
f 65/83/89 70/88/87 76/96/91
f 70/88/87 64/82/54 38/51/53
f 70/88/87 38/51/53 81/103/90
f 67/85/85 66/84/84 22/31/34
f 61/79/88 65/83/89 66/84/84
f 66/84/84 65/83/89 94/118/38
f 66/84/84 94/118/38 27/37/37
f 65/83/89 76/96/91 94/118/38
f 71/89/98 77/97/93 72/91/92
f 72/91/92 97/122/46 96/120/45
f 71/89/98 72/91/92 74/93/94
f 78/99/96 74/93/94 84/106/21
f 74/93/94 73/92/65 85/108/23
f 74/93/94 85/108/23 83/105/22
f 71/90/98 74/94/94 75/95/95
f 75/95/95 78/100/96 94/118/38
f 78/100/96 84/107/21 79/101/36
f 77/98/93 76/96/91 81/103/90
f 80/102/97 81/103/90 38/51/53
f 29/40/49 39/52/56 105/132/99
f 43/57/59 31/43/42 101/127/101
f 28/38/39 99/125/105 100/126/103
f 28/39/39 35/47/52 103/129/104
f 29/40/49 102/128/100 103/129/104
f 31/43/42 33/45/44 100/126/103
f 30/41/55 43/57/59 106/133/102
f 30/42/55 104/131/106 105/132/99
f 105/132/99 104/131/106 110/145/107
f 106/133/102 108/139/108 110/144/107
f 100/126/103 107/137/109 108/139/108
f 103/129/104 102/128/100 109/141/110
f 103/129/104 109/141/110 107/136/109
f 100/126/103 99/125/105 107/137/109
f 106/133/102 101/127/101 108/139/108
f 105/132/99 110/145/107 109/141/110
